<svg fill="#000000" width="28px" height="28px" viewBox="0 0 0.84 0.84" xmlns="http://www.w3.org/2000/svg"><path d="M0.435 0.143a0.034 0.034 0 0 0 -0.035 0.003L0.233 0.28H0.104a0.034 0.034 0 0 0 -0.035 0.035v0.211A0.034 0.034 0 0 0 0.104 0.56h0.128l0.165 0.132a0.034 0.034 0 0 0 0.024 0.008L0.435 0.697A0.034 0.034 0 0 0 0.455 0.665V0.176A0.034 0.034 0 0 0 0.435 0.143M0.384 0.592 0.265 0.498A0.034 0.034 0 0 0 0.245 0.491H0.14V0.351h0.104A0.034 0.034 0 0 0 0.265 0.343L0.384 0.249ZM0.688 0.222A0.035 0.035 0 0 0 0.638 0.271a0.213 0.213 0 0 1 -0.013 0.309 0.035 0.035 0 0 0 0.022 0.062 0.034 0.034 0 0 0 0.022 -0.008 0.28 0.28 0 0 0 0.018 -0.412M0.589 0.32A0.035 0.035 0 1 0 0.54 0.37 0.078 0.078 0 0 1 0.56 0.42a0.078 0.078 0 0 1 -0.025 0.054 0.034 0.034 0 0 0 -0.004 0.049 0.034 0.034 0 0 0 0.049 0.003 0.146 0.146 0 0 0 0.05 -0.106 0.146 0.146 0 0 0 -0.041 -0.099"/></svg>